<svg xmlns="http://www.w3.org/2000/svg" xmlns:xlink="http://www.w3.org/1999/xlink" width="1264.478" height="1381.8" viewBox="0 0 1264.478 1381.8"><defs><filter id="a" x="70.393" y="521.72" width="832.17" height="738.361" filterUnits="userSpaceOnUse"><feOffset dy="100" input="SourceAlpha"/><feGaussianBlur stdDeviation="49.5" result="b"/><feFlood flood-color="#1f485d" flood-opacity="0.2"/><feComposite operator="in" in2="b"/><feComposite in="SourceGraphic"/></filter><filter id="c" x="480.478" y="500.4" width="784" height="881.4" filterUnits="userSpaceOnUse"><feOffset dy="100" input="SourceAlpha"/><feGaussianBlur stdDeviation="49.5" result="d"/><feFlood flood-color="#1f485d" flood-opacity="0.259"/><feComposite operator="in" in2="d"/><feComposite in="SourceGraphic"/></filter><clipPath id="e"><circle cx="33.394" cy="33.394" r="33.394" fill="#bcd0e7"/></clipPath><clipPath id="g"><circle cx="33.394" cy="33.394" r="33.394" fill="#ffd666"/></clipPath><clipPath id="h"><circle cx="33.394" cy="33.394" r="33.394" fill="#8097ff"/></clipPath><filter id="i" x="0" y="272.067" width="1195.834" height="656.666" filterUnits="userSpaceOnUse"><feOffset dy="100" input="SourceAlpha"/><feGaussianBlur stdDeviation="49.5" result="j"/><feFlood flood-color="#1f485d" flood-opacity="0.2"/><feComposite operator="in" in2="j"/><feComposite in="SourceGraphic"/></filter><linearGradient id="k" x1="0.5" y1="1" x2="0.5" gradientUnits="objectBoundingBox"><stop offset="0" stop-color="#fff" stop-opacity="0"/><stop offset="1" stop-color="#8097ff"/></linearGradient><filter id="l" x="671.408" y="398.597" width="89.783" height="51.751" filterUnits="userSpaceOnUse"><feOffset dy="1" input="SourceAlpha"/><feGaussianBlur stdDeviation="1.5" result="m"/><feFlood flood-opacity="0.149"/><feComposite operator="in" in2="m"/><feComposite in="SourceGraphic"/></filter><filter id="n" x="247.478" y="0" width="760" height="667.4" filterUnits="userSpaceOnUse"><feOffset dy="50" input="SourceAlpha"/><feGaussianBlur stdDeviation="49.5" result="o"/><feFlood flood-color="#1f305d" flood-opacity="0.259"/><feComposite operator="in" in2="o"/><feComposite in="SourceGraphic"/></filter></defs><g transform="translate(-771.022 -153.1)"><g transform="matrix(0.966, -0.259, 0.259, 0.966, 989.915, 843.67)"><g transform="matrix(0.97, 0.26, -0.26, 0.97, -32.7, -723.69)" filter="url(#a)"><rect width="465" height="332.334" rx="8" transform="matrix(0.97, -0.26, 0.26, 0.97, 218.89, 690.57)" fill="#fff"/></g><path d="M0,.5,400.677.5" transform="translate(32.161 185.098)" fill="none" stroke="#e6ebf0" stroke-linecap="square" stroke-miterlimit="10" stroke-width="1"/><text transform="translate(32.161 50.821)" fill="#79828b" font-size="18" font-family="Poppins-Medium, Poppins" font-weight="500"><tspan x="0" y="0" letter-spacing="0.107em">RAN</tspan><tspan y="0">K</tspan></text><text transform="translate(277.392 50.821)" fill="#79828b" font-size="18" font-family="Poppins-Medium, Poppins" font-weight="500"><tspan x="0" y="0" letter-spacing="0.107em">PROJECT</tspan><tspan y="0">S</tspan></text><g transform="translate(32.161 79.063)"><circle cx="21.441" cy="21.441" r="21.441" fill="#8097ff" opacity="0.5"/><path d="M10.72,17.778,4.095,21.441,5.36,13.684,0,8.19,7.408,7.058,10.72,0l3.313,7.058L21.441,8.19l-5.36,5.494,1.265,7.757Z" transform="translate(10.72 10.72)" fill="#fff"/></g><g transform="translate(277.392 79.063)"><circle cx="21.441" cy="21.441" r="21.441" fill="#8097ff" opacity="0.5"/><path d="M17.2,17.42h0l-1.934-2.006,6.322-6.7L15.267,2.042,17.2,0l8.259,8.71L17.2,17.419Zm-8.943,0h0L0,8.71,8.259,0l1.936,2.042L3.871,8.71l6.323,6.7L8.26,17.419Z" transform="translate(9.38 13.401)" fill="#fff"/></g><rect width="140.706" height="18.761" rx="9.38" transform="translate(88.444 91.124)" fill="#0634ff"/><rect width="97.824" height="18.761" rx="9.38" transform="translate(333.674 91.124)" fill="#0634ff"/><rect width="127.305" height="14.294" rx="7.147" transform="translate(32.161 141.599)" fill="#8097ff" opacity="0.3"/><rect width="127.305" height="13.401" rx="6.7" transform="translate(32.161 221.11)" fill="#0634ff"/><rect width="68.343" height="13.401" rx="6.7" transform="translate(32.161 269.352)" fill="#8097ff" opacity="0.3"/><rect width="68.343" height="13.401" rx="6.7" transform="translate(143.386 269.352)" fill="#8097ff" opacity="0.3"/><rect width="68.343" height="13.401" rx="6.7" transform="translate(263.991 269.352)" fill="#8097ff" opacity="0.3"/><path d="M7.147,0H120.158a7.147,7.147,0,0,1,0,14.294H7.147A7.147,7.147,0,0,1,7.147,0Z" transform="translate(277.392 141.599)" fill="#8097ff" opacity="0.3"/></g><g transform="translate(1400 650)"><g transform="matrix(1, 0, 0, 1, -628.98, -496.9)" filter="url(#c)"><rect width="487" height="584.4" rx="8" transform="translate(628.98 548.9)" fill="#fff"/></g><path d="M0,.5,420.211.5" transform="translate(33.394 244.212)" fill="none" stroke="#e6ebf0" stroke-linecap="square" stroke-miterlimit="10" stroke-width="1"/><path d="M0,.5,420.211.5" transform="translate(33.394 366.658)" fill="none" stroke="#e6ebf0" stroke-linecap="square" stroke-miterlimit="10" stroke-width="1"/><path d="M0,.5,420.211.5" transform="translate(33.394 489.104)" fill="none" stroke="#e6ebf0" stroke-linecap="square" stroke-miterlimit="10" stroke-width="1"/><text transform="translate(33.394 195.097)" fill="#42505c" font-size="27" font-family="Poppins-Regular, Poppins"><tspan x="0" y="0">1.</tspan></text><text transform="translate(33.394 317.543)" fill="#42505c" font-size="27" font-family="Poppins-Regular, Poppins"><tspan x="0" y="0">2.</tspan></text><text transform="translate(33.394 562.434)" fill="#42505c" font-size="27" font-family="Poppins-Regular, Poppins"><tspan x="0" y="0">4.</tspan></text><text transform="translate(33.394 439.989)" fill="#42505c" font-size="27" font-family="Poppins-Regular, Poppins"><tspan x="0" y="0">3.</tspan></text><g transform="translate(72.354 150.791)"><circle cx="33.394" cy="33.394" r="33.394" fill="#8097ff"/></g><g transform="translate(72.354 273.237)"><circle cx="33.394" cy="33.394" r="33.394" fill="#ffd666"/></g><g transform="translate(72.354 395.683)"><circle cx="33.394" cy="33.394" r="33.394" fill="#ffd666"/></g><g transform="translate(72.354 518.129)"><circle cx="33.394" cy="33.394" r="33.394" fill="#8097ff"/></g><rect width="148.883" height="19.48" rx="7" transform="translate(32.003 88.177)" fill="#4d6dff"/><rect width="148.883" height="13.914" rx="6.957" transform="translate(175.32 157.749)" fill="#0634ff"/><rect width="148.883" height="13.914" rx="6.957" transform="translate(175.32 284.369)" fill="#0634ff"/><rect width="148.883" height="13.914" rx="6.957" transform="translate(175.32 406.814)" fill="#0634ff"/><rect width="148.883" height="13.914" rx="6.957" transform="translate(175.32 530.651)" fill="#0634ff"/><rect width="90.443" height="13.914" rx="6.957" transform="translate(175.32 185.577)" fill="#8097ff" opacity="0.47"/><rect width="90.443" height="13.914" rx="6.957" transform="translate(175.32 312.197)" fill="#8097ff" opacity="0.47"/><rect width="90.443" height="13.914" rx="6.957" transform="translate(175.32 434.643)" fill="#8097ff" opacity="0.47"/><rect width="90.443" height="13.914" rx="6.957" transform="translate(175.32 558.48)" fill="#8097ff" opacity="0.47"/><rect width="54.266" height="13.914" rx="6.957" transform="translate(339.509 90.96)" fill="#8097ff" opacity="0.49"/><rect width="54.266" height="13.914" rx="6.957" transform="translate(406.297 90.96)" fill="#8097ff"/></g><g transform="translate(788.756 276.61) rotate(4)"><g transform="translate(165 186)"><g transform="matrix(1, -0.07, 0.07, 1, -191.31, -307.97)" filter="url(#i)"><rect width="880.121" height="299" rx="8" transform="translate(169.36 320.57) rotate(4)" fill="#fff"/></g><g transform="translate(28.935 178.435)"><rect width="142.266" height="38.581" rx="19" fill="#8097ff" opacity="0.3"/></g><g transform="translate(258.008 38.581)"><rect width="36.169" height="192.903" transform="translate(50.637)" fill="#f6f8fa"/><rect width="36.169" height="192.903" transform="translate(231.484)" fill="#f6f8fa"/><rect width="36.169" height="192.903" transform="translate(412.331)" fill="#f6f8fa"/><rect width="36.169" height="192.903" transform="translate(141.06)" fill="#f6f8fa"/><rect width="36.169" height="192.903" transform="translate(321.907)" fill="#f6f8fa"/><rect width="36.169" height="192.903" transform="translate(501.548)" fill="#f6f8fa"/><rect width="36.169" height="192.903" transform="translate(96.452)" fill="#f6f8fa"/><rect width="36.169" height="192.903" transform="translate(276.093)" fill="#f6f8fa"/><rect width="36.169" height="192.903" transform="translate(456.94)" fill="#f6f8fa"/><rect width="36.169" height="192.903" transform="translate(186.875)" fill="#f6f8fa"/><rect width="36.169" height="192.903" transform="translate(366.516)" fill="#f6f8fa"/><rect width="36.169" height="192.903" transform="translate(547.363)" fill="#f6f8fa"/><path d="M499.137,143.472H0V78.8L47.053,17.07,93.177,45.625l42.765-27.711,44.983,121.563,45.73-128.489,43.987,70.977L318.954,34.6,362.113,52.72l43.524-34.806L452.618,34.6,499.137,0" transform="translate(67.516 48.226)" opacity="0.2" fill="url(#k)"/><path d="M0,78.9,46.359,15.3l46.025,30.61,43.625-29.133,44.45,121.873L226.271,9.321l44.278,73.124L318.613,33.66,361.68,53.08l43.932-36.3L452.581,33.66,497.931,0" transform="translate(68.722 49.431)" fill="none" stroke="#8097ff" stroke-linecap="round" stroke-miterlimit="10" stroke-width="1.65"/><circle cx="5.425" cy="5.425" r="5.425" transform="translate(289.355 51.843)" fill="#fff" stroke="#4360df" stroke-miterlimit="10" stroke-width="1.65"/><text transform="translate(69.871 215.343)" fill="#79828b" font-size="13" font-family="Poppins-Regular, Poppins"><tspan x="-12.415" y="0">Mar</tspan></text><text transform="translate(32.617 171.94)" fill="#79828b" font-size="13" font-family="Poppins-Regular, Poppins"><tspan x="-28.574" y="0">$100</tspan></text><text transform="translate(32.617 124.919)" fill="#79828b" font-size="13" font-family="Poppins-Regular, Poppins"><tspan x="-28.574" y="0">$150</tspan></text><text transform="translate(33 79.105)" fill="#79828b" font-size="13" font-family="Poppins-Regular, Poppins"><tspan x="-31.889" y="0">$200</tspan></text><text transform="translate(33 32.085)" fill="#79828b" font-size="13" font-family="Poppins-Regular, Poppins"><tspan x="-31.889" y="0">$250</tspan></text><text transform="translate(159.486 214.343)" fill="#79828b" font-size="12" font-family="Poppins-Regular, Poppins"><tspan x="-12.6" y="0">May</tspan></text><text transform="translate(248.923 215.343)" fill="#79828b" font-size="13" font-family="Poppins-Regular, Poppins"><tspan x="-9.204" y="0">Jul</tspan></text><text transform="translate(338.73 215.343)" fill="#79828b" font-size="13" font-family="Poppins-Regular, Poppins"><tspan x="-12.24" y="0">Sep</tspan></text><text transform="translate(518.974 215.343)" fill="#79828b" font-size="13" font-family="Poppins-Regular, Poppins"><tspan x="-11.999" y="0">Jan</tspan></text><text transform="translate(430.359 215.343)" fill="#79828b" font-size="13" font-family="Poppins-Regular, Poppins"><tspan x="-12.376" y="0">Nov</tspan></text><g transform="matrix(1, -0.07, 0.07, 1, -449.31, -346.55)" filter="url(#l)"><g transform="translate(678.52 402.1) rotate(4)" fill="#fff" stroke="#6271d2" stroke-miterlimit="10" stroke-width="1.1"><rect width="78.367" height="37.375" rx="15.5" stroke="none"/><rect x="0.55" y="0.55" width="77.267" height="36.275" rx="14.95" fill="none"/></g></g><text transform="translate(293.462 34.262)" fill="#42505c" font-size="19" font-family="Poppins-Medium, Poppins" font-weight="500" letter-spacing="0.042em"><tspan x="-24.424" y="0">$226</tspan></text></g></g><rect width="167.585" height="16.879" rx="7" transform="translate(195.141 219.758)" fill="#0634ff"/><rect width="169.996" height="16.879" rx="8" transform="translate(195.141 280.04)" fill="#8097ff" opacity="0.3"/><rect width="54.254" height="16.879" rx="8" transform="translate(195.141 313.798)" fill="#8097ff" opacity="0.3"/><path d="M5,0H109.536a5,5,0,0,1,5,5v.851a5,5,0,0,1-5,5H5a5,5,0,0,1-5-5V5A5,5,0,0,1,5,0Z" transform="translate(195.141 424.718)" fill="#8097ff" opacity="0.3"/><rect width="98.863" height="10.851" rx="5.425" transform="translate(208.403 378.903)" fill="#fff" opacity="0.44"/></g><g transform="translate(1167 199.6)"><g transform="matrix(1, 0, 0, 1, -395.98, -46.5)" filter="url(#n)"><rect width="463" height="370.4" rx="8" transform="translate(395.98 98.5)" fill="#fff"/></g><circle cx="31.749" cy="31.749" r="31.749" transform="translate(31.749 83.749)" fill="#4d6dff" opacity="0.79"/><path d="M0,.5H399.5" transform="translate(31.749 320.701)" fill="none" stroke="#e6ebf0" stroke-linecap="square" stroke-miterlimit="10" stroke-width="1"/><rect width="124.349" height="14.551" rx="7" transform="translate(120.38 94.331)" fill="#0634ff"/><rect width="82.017" height="14.551" rx="7" transform="translate(120.38 119.466)" fill="#8097ff" opacity="0.3"/><rect width="387.597" height="14.551" rx="7" transform="translate(31.749 197.514)" fill="#8097ff" opacity="0.2"/><rect width="300.289" height="14.551" rx="7" transform="translate(31.749 225.294)" fill="#8097ff" opacity="0.2"/><rect width="230.177" height="14.551" rx="7" transform="translate(31.749 253.074)" fill="#8097ff" opacity="0.2"/><g transform="translate(347.911 99.623)"><rect width="83.34" height="31.749" rx="15.874" fill="#8097ff" opacity="0.3"/><rect width="39.066" height="5.291" rx="2.646" transform="translate(22.137 13.229)" fill="#fff" opacity="0.3"/></g><g transform="translate(31.749 356.257)"><rect width="83.34" height="31.749" rx="15.874" transform="translate(0 0)" fill="#0634ff"/><rect width="39.066" height="5.291" rx="2.646" transform="translate(22.137 13.229)" fill="#fff" opacity="0.3"/></g><g transform="translate(190.491 356.257)"><rect width="83.34" height="31.749" rx="15.874" transform="translate(0 0)" fill="#0634ff"/><rect width="39.066" height="5.291" rx="2.646" transform="translate(22.137 13.229)" fill="#fff" opacity="0.3"/></g><g transform="translate(347.912 356.257)"><rect width="83.34" height="31.749" rx="15.874" transform="translate(0 0)" fill="#0634ff"/><rect width="39.066" height="5.291" rx="2.646" transform="translate(22.137 13.229)" fill="#fff" opacity="0.3"/></g></g></g></svg>