<?xml version="1.0" encoding="UTF-8"?>
<svg width="1594" height="954" inkscape:version="1.2 (dc2aedaf03, 2022-05-15)" sodipodi:docname="CARTOONNETWORK.svg" version="1.1" viewBox="0 0 1275.2 763.2" xmlns="http://www.w3.org/2000/svg" xmlns:inkscape="http://www.inkscape.org/namespaces/inkscape" xmlns:sodipodi="http://sodipodi.sourceforge.net/DTD/sodipodi-0.dtd">
 <sodipodi:namedview bordercolor="#666666" borderopacity="1" gridtolerance="10" guidetolerance="10" inkscape:current-layer="svg2" inkscape:cx="3082.9855" inkscape:cy="-130.10765" inkscape:deskcolor="#d1d1d1" inkscape:document-rotation="0" inkscape:pagecheckerboard="1" inkscape:pageopacity="0" inkscape:pageshadow="2" inkscape:showpageshadow="0" inkscape:window-height="1009" inkscape:window-maximized="1" inkscape:window-width="1920" inkscape:window-x="-8" inkscape:window-y="-8" inkscape:zoom="0.1767767" objecttolerance="10" pagecolor="#ffffff" showgrid="false"/>
 <g transform="matrix(1.594 0 0 1.594 0 .0034194)">
  <g stroke-width=".62751">
   <path d="m400-0.0055643h400.01l-6e-3 399.9h-400.01z" fill="#fff" inkscape:connector-curvature="0"/>
   <path d="m0-0.005756h400v399.9h-400z" inkscape:connector-curvature="0"/>
   <path d="m366.39 111.6-99.347 56.834c-14.557-23.366-35.282-32.307-54.592-32.469-35.166-0.29463-65.493 27.937-65.474 63.95-0.0174 37.046 30.406 63.918 63.686 64.483 19.893 0.33516 44.098-10.745 56.396-32.715l99.341 56.98c-36.113 62.249-98.023 90.355-155.87 90.255-91.729-0.1506-178.02-73.488-178.01-178.85-0.003137-104.81 86.64-179.42 178.36-178.83 59.482 0.38717 120.12 28.371 155.52 90.355z" fill="#fff" inkscape:connector-curvature="0"/>
   <path d="m428.73 28.653h114.23l114.35 142.95v-142.95h114.14l6e-3 342.73h-114.14l-114.35-142.71v142.71h-114.26z" inkscape:connector-curvature="0"/>
  </g>
  <g>
   <path d="m45.747 428.9c6.2833 1.7666 11.566 6.1644 14.981 11.671l-13.153 7.5232c-2.2929-3.195-6.0688-5.4878-10.122-4.8801-4.0031 0.38841-7.5113 3.4337-8.5636 7.3055-1.6226 6.8725 3.2952 12.579 9.3091 12.874 3.3641 0.10023 6.9522-1.3845 9.3762-4.9679l13.153 7.5929c-4.3414 7.1793-12.029 12.047-20.412 12.755-15.543 0.47859-28.943-11.425-26.8-29.55 2.8876-15.715 17.509-24.406 32.231-20.323z" stroke-width=".62751" inkscape:connector-curvature="0"/>
   <path d="m251.01 427.96c-4.9046-0.3454-9.9492 0.71054-14.483 3.3398-12.09 7.011-16.271 22.733-9.2607 34.823 7.0104 12.091 22.734 16.273 34.824 9.2631 11.567-6.7057 15.779-21.354 9.996-33.2a8.1409 8.1409 0 0 0-0.72801-1.6129c-2e-3 -4e-3 -3e-3 -7e-3 -5e-3 -0.011a8.1409 8.1409 0 0 0-3e-3 -3e-3 8.1409 8.1409 0 0 0-1.0663-1.472c-4.5056-6.611-11.679-10.592-19.275-11.127zm-1.054 16.158c2.9326 0.18779 5.6898 1.8077 7.3132 4.607a8.1409 8.1409 0 0 0 1e-3 1e-3 8.1409 8.1409 0 0 0 1e-3 3e-3c2.595 4.479 1.1315 9.9758-3.3471 12.572-4.4792 2.597-9.9776 1.1345-12.575-3.3447-2.5972-4.479-1.1343-9.9761 3.3447-12.573v-1e-3c1.6796-0.97405 3.502-1.3763 5.2615-1.2636z" color="#000000" color-rendering="auto" image-rendering="auto" shape-rendering="auto" style="isolation:auto;mix-blend-mode:normal;text-decoration-color:#000000;text-decoration-line:none;text-decoration-style:solid;text-indent:0;text-transform:none;white-space:normal" inkscape:connector-curvature="0"/>
   <path d="m659.64 427.96c-4.9047-0.3454-9.9492 0.71054-14.483 3.3398-12.09 7.011-16.271 22.733-9.2607 34.823 7.0104 12.091 22.734 16.273 34.824 9.2631 11.568-6.7067 15.781-21.359 9.9948-33.205a8.1409 8.1409 0 0 0-0.72553-1.608c0-4e-3 0-7e-3 -6e-3 -0.011a8.1409 8.1409 0 0 0 0-3e-3 8.1409 8.1409 0 0 0-1.0675-1.4732c-4.5056-6.6103-11.68-10.591-19.275-11.126zm-1.054 16.158c2.9325 0.18779 5.6898 1.8077 7.3132 4.607a8.1409 8.1409 0 0 0 0 1e-3 8.1409 8.1409 0 0 0 0 3e-3c2.595 4.479 1.1327 9.9758-3.3459 12.572-4.4792 2.597-9.9763 1.1345-12.573-3.3447-2.5972-4.479-1.1355-9.9761 3.3434-12.573v-1e-3c1.6797-0.97405 3.502-1.3763 5.2615-1.2636z" color="#000000" color-rendering="auto" image-rendering="auto" shape-rendering="auto" style="isolation:auto;mix-blend-mode:normal;text-decoration-color:#000000;text-decoration-line:none;text-decoration-style:solid;text-indent:0;text-transform:none;white-space:normal" inkscape:connector-curvature="0"/>
   <g stroke-width=".62751">
    <path d="m101.42 428.92h-24.393l-15.276 48.835h17.169l2.5094-8.1903h15.641l2.4623 8.1903h17.164zm-12.193 13.473 4.3624 15.154h-8.7349z" inkscape:connector-curvature="0"/>
    <path d="m121.62 428.92v48.835h16.175v-14.277h5.2711l7.249 14.277h17.992l-9.4277-16.018c7.2609-4.6552 9.7471-10.424 9.4729-16.221 6e-3 -8.7538-7.879-16.351-16.501-16.596zm26.936 14.243c2.0838 0.0274 3.6044 2.0547 3.696 3.7886 0.0533 2.4802-1.8346 4.3401-3.7117 4.3847l-10.746 0.0157v-8.189z" inkscape:connector-curvature="0"/>
    <path d="m172.82 443.17v-14.258h48.933v14.258h-15.311v34.577h-18.301v-34.577z" inkscape:connector-curvature="0"/>
    <path d="m334.91 428.92h16.141l16.535 20.307v-20.307h16.152v48.835h-16.152l-16.535-20.351v20.351h-16.141z" inkscape:connector-curvature="0"/>
    <path d="m416.77 428.92h16.14l16.535 20.307v-20.307h16.151v48.835h-16.151l-16.535-20.351v20.351h-16.14z" inkscape:connector-curvature="0"/>
    <path d="m472.62 428.92h42.646l-2.4e-4 14.247h-26.493v5h22.308v11.408h-22.308v5.139h26.493l-2.5e-4 13.041h-42.646z" inkscape:connector-curvature="0"/>
    <path d="m520.66 443.17v-14.258h48.933v14.258h-15.311v34.577h-18.301v-34.577z" inkscape:connector-curvature="0"/>
    <path d="m573.68 428.92h16.416s4.1053 21.325 4.1227 21.412l8.0898-19.665 8.238 19.621 4.1227-21.368h16.265l-9.2997 48.835h-13.535l-5.7919-13.183-5.8609 13.183h-13.309s-9.2802-47.733-9.4566-48.835z" inkscape:connector-curvature="0"/>
    <path d="m688.13 428.92v48.835h16.174l0.0314-14.277h5.2397l7.2477 14.277h17.994l-9.4283-16.018c7.2609-4.6552 9.7496-10.424 9.4754-16.221 6e-3 -8.7538-7.8815-16.351-16.504-16.596zm26.936 14.243c2.0838 0.0274 3.6028 2.0547 3.6945 3.7886 0.0533 2.4802-1.833 4.3401-3.7102 4.3847l-10.746 0.0157v-8.189z" inkscape:connector-curvature="0"/>
    <path d="m740.08 477.75v-48.835h16.334v15.821l12.18-15.821h20.827l-18.901 23.282 18.901 25.553h-20.827l-12.18-18.174v18.174z" inkscape:connector-curvature="0"/>
   </g>
   <path d="m306.21 427.96c-4.9046-0.3454-9.9492 0.71054-14.483 3.3398-12.09 7.011-16.271 22.733-9.2607 34.823 7.0104 12.091 22.732 16.273 34.823 9.2631 11.567-6.7057 15.78-21.354 9.9972-33.2a8.1409 8.1409 0 0 0-0.728-1.6129c-2e-3 -4e-3 -3e-3 -7e-3 -5e-3 -0.011a8.1409 8.1409 0 0 0-3e-3 -3e-3 8.1409 8.1409 0 0 0-1.0675-1.4732c-4.5057-6.6103-11.679-10.591-19.274-11.126zm-1.054 16.158c2.9326 0.18779 5.6885 1.8077 7.312 4.607a8.1409 8.1409 0 0 0 1e-3 1e-3 8.1409 8.1409 0 0 0 1e-3 3e-3c2.595 4.479 1.1327 9.9758-3.3459 12.572-4.4792 2.597-9.9776 1.1345-12.575-3.3447-2.5972-4.479-1.1355-9.9761 3.3434-12.573v-1e-3c1.6796-0.97405 3.5032-1.3763 5.2627-1.2636z" color="#000000" color-rendering="auto" image-rendering="auto" shape-rendering="auto" style="isolation:auto;mix-blend-mode:normal;text-decoration-color:#000000;text-decoration-line:none;text-decoration-style:solid;text-indent:0;text-transform:none;white-space:normal" inkscape:connector-curvature="0"/>
  </g>
 </g>
</svg>
